<svg xmlns="http://www.w3.org/2000/svg" width="23.396" height="25.681" viewBox="0 0 23.396 25.681"><defs><style>.a{fill:#2658c8;stroke:#2658c8;stroke-width:0.5px;}</style></defs><g transform="translate(-7.15 -2.85)"><path class="a" d="M52.673,53.931A7.336,7.336,0,0,0,47.648,47a4.031,4.031,0,0,0,1.8-3.359v-.107A4.031,4.031,0,0,0,45.417,39.5H45.31a4.031,4.031,0,0,0-4.031,4.031v.107A4.031,4.031,0,0,0,43.079,47,7.337,7.337,0,0,0,38,53.931V54.9H52.673ZM42.327,43.639v-.107a2.956,2.956,0,0,1,2.956-2.956h.107a2.956,2.956,0,0,1,2.956,2.956v.107a2.956,2.956,0,0,1-2.956,2.956h-.107A2.956,2.956,0,0,1,42.327,43.639ZM39.1,53.851a6.262,6.262,0,0,1,12.5,0Z" transform="translate(-22.377 -26.618)"/><path class="a" d="M17.4,14.494V11.807h3.064V3.1H7.4v8.707h6.315ZM8.475,4.175H19.386v6.557H16.322v1.639l-2.231-1.639H8.475Z" transform="translate(0 0)"/></g></svg>