<svg xmlns="http://www.w3.org/2000/svg" width="18.709" height="20.046" viewBox="0 0 18.709 20.046"><defs><style>.a{fill:#2658c8;}</style></defs><g transform="translate(-2 -1)"><path class="a" d="M11.355,21.046a.669.669,0,0,1-.316-.08A16.658,16.658,0,0,1,2,6.441a14.61,14.61,0,0,1,.248-2.727.668.668,0,0,1,.823-.521A8.215,8.215,0,0,0,5.15,3.45a8.309,8.309,0,0,0,5.74-2.263.67.67,0,0,1,.929,0,8.309,8.309,0,0,0,5.74,2.263,8.215,8.215,0,0,0,2.079-.257.668.668,0,0,1,.823.521,14.61,14.61,0,0,1,.248,2.727,16.658,16.658,0,0,1-9.039,14.525.669.669,0,0,1-.316.08Zm-7.9-16.4a13.8,13.8,0,0,0-.115,1.8,15.29,15.29,0,0,0,8.018,13.173A15.29,15.29,0,0,0,19.373,6.441a13.8,13.8,0,0,0-.115-1.8,9.855,9.855,0,0,1-1.7.146,9.717,9.717,0,0,1-6.2-2.22,9.717,9.717,0,0,1-6.2,2.22,9.855,9.855,0,0,1-1.7-.146ZM10.86,13.8l4.009-4.677a.668.668,0,0,0-1.015-.869l-3.467,4.044-1.5-2.006a.668.668,0,0,0-1.069.8l2,2.673a.666.666,0,0,0,.513.267h.022a.667.667,0,0,0,.507-.234Z" transform="translate(0 0)"/></g></svg>