<svg xmlns="http://www.w3.org/2000/svg" width="16.168" height="22.42" viewBox="0 0 16.168 22.42"><defs><style>.a{fill:#2658c8;stroke:#2658c8;stroke-width:0.5px;}</style></defs><g transform="translate(-11.745 -3.75)"><g transform="translate(12 4)"><path class="a" d="M27.035,16.051l2.116-2.063a.392.392,0,0,0-.217-.668L26.009,12.9,24.7,10.245a.407.407,0,0,0-.7,0L22.691,12.9l-2.925.425a.392.392,0,0,0-.217.668l2.116,2.063-.5,2.913a.391.391,0,0,0,.568.413L24.351,18l2.616,1.375a.391.391,0,0,0,.567-.413Zm-.806-.07.4,2.334-2.1-1.1a.39.39,0,0,0-.364,0l-2.1,1.1.4-2.334a.392.392,0,0,0-.112-.346l-1.7-1.653,2.343-.341a.391.391,0,0,0,.295-.214L24.351,11.3,25.4,13.427a.391.391,0,0,0,.295.214l2.343.341-1.7,1.653A.392.392,0,0,0,26.229,15.98Z" transform="translate(-16.523 -7.679)"/><path class="a" d="M27.639,23.845,25.3,16.453a7.437,7.437,0,1,0-10.951,0l-2.334,7.393a.391.391,0,0,0,.511.485l2.85-1.069,1.783,2.5a.391.391,0,0,0,.318.164.4.4,0,0,0,.068-.006.392.392,0,0,0,.309-.281l1.879-6.763c.031,0,.061,0,.092,0s.061,0,.092,0L21.8,25.633a.392.392,0,0,0,.309.281.367.367,0,0,0,.068.006.39.39,0,0,0,.318-.164l1.783-2.5,2.85,1.069a.391.391,0,0,0,.511-.484Zm-10.316.789-1.481-2.073a.39.39,0,0,0-.456-.139l-2.378.892,1.973-6.25a7.4,7.4,0,0,0,3.958,1.751Zm-4.148-13.2a6.654,6.654,0,1,1,6.654,6.654A6.662,6.662,0,0,1,13.175,11.437Zm11.1,10.985a.391.391,0,0,0-.456.139l-1.481,2.073-1.616-5.819a7.4,7.4,0,0,0,3.958-1.751l1.973,6.25Z" transform="translate(-12 -4)"/></g></g></svg>