<svg xmlns="http://www.w3.org/2000/svg" width="19.479" height="21.997" viewBox="0 0 19.479 21.997"><defs><style>.a{fill:#2658c8;stroke:rgba(0,0,0,0);stroke-miterlimit:10;}</style></defs><g transform="translate(-257.5 -404.471)"><path class="a" d="M833,413.226a5.609,5.609,0,0,0,0-11.218h0a5.609,5.609,0,0,0,0,11.218Zm-4.21-5.608a4.21,4.21,0,1,1,4.216,4.2H833a4.208,4.208,0,0,1-4.209-4.2Z" transform="translate(-565.761 2.963)"/><path class="a" d="M837.132,425.8a7.925,7.925,0,0,0-5.668-2.412h-2.442a7.922,7.922,0,0,0-5.674,2.411A8.1,8.1,0,0,0,821,431.544a.7.7,0,0,0,.7.7h17.087a.7.7,0,0,0,.692-.7A8.111,8.111,0,0,0,837.132,425.8Zm.916,5.04h-15.62a6.637,6.637,0,0,1,6.593-6.051h2.442A6.639,6.639,0,0,1,838.047,430.844Z" transform="translate(-563 -6.276)"/></g></svg>