<svg xmlns="http://www.w3.org/2000/svg" width="14.884" height="14.884" viewBox="0 0 14.884 14.884"><defs><style>.a{fill:#1d7cf7;fill-rule:evenodd;}</style></defs><g transform="translate(-3287 -628)"><path class="a" d="M9.5,4.445A5.056,5.056,0,1,0,14.557,9.5,5.056,5.056,0,0,0,9.5,4.445ZM3,9.5a6.5,6.5,0,1,1,11.579,4.059l.029.027,3.064,3.064a.722.722,0,0,1-1.021,1.021l-3.064-3.064-.027-.029A6.5,6.5,0,0,1,3,9.5ZM8.778,6.612A.722.722,0,0,1,9.5,5.889,3.612,3.612,0,0,1,13.112,9.5a.722.722,0,0,1-1.445,0A2.167,2.167,0,0,0,9.5,7.334.722.722,0,0,1,8.778,6.612Z" transform="translate(3284 625)"/></g></svg>