<svg xmlns="http://www.w3.org/2000/svg" width="19.905" height="23.027" viewBox="0 0 19.905 23.027"><defs><style>.a{fill:#2658c8;}</style></defs><g transform="translate(-23.075 -18.854)"><g transform="translate(23.075 18.854)"><path class="a" d="M24.316,35.226c.757,2.01,5.587,6.237,8.614,6.642l.1.013.1-.013c3.027-.4,7.857-4.632,8.614-6.642.745-1.978,1.043-6.179,1.137-7.893.31-5.67-.155-6.134-.329-6.308-.639-.639-4.285-2.17-9.52-2.17s-8.881,1.531-9.52,2.17c-.175.175-.639.638-.329,6.309C23.272,29.047,23.57,33.248,24.316,35.226ZM24.651,22a18.471,18.471,0,0,1,8.377-1.668A18.491,18.491,0,0,1,41.4,22c.268,1.423-.017,9.969-1.048,12.706-.593,1.574-4.866,5.271-7.328,5.682-2.463-.412-6.736-4.108-7.328-5.683C24.669,31.969,24.384,23.43,24.651,22Z" transform="translate(-23.075 -18.854)"/><path class="a" d="M36.68,38.163,36.143,41.3a.739.739,0,0,0,1.073.779L40.028,40.6l2.813,1.479a.739.739,0,0,0,1.073-.779l-.537-3.132,2.276-2.218a.739.739,0,0,0-.41-1.261L42.1,34.227l-1.407-2.85a.739.739,0,0,0-1.326,0l-1.407,2.85-3.145.457a.739.739,0,0,0-.41,1.261Zm1.876-2.529a.739.739,0,0,0,.557-.4l.916-1.855.916,1.855a.739.739,0,0,0,.557.4l2.047.3-1.481,1.444a.74.74,0,0,0-.213.654l.35,2.039-1.831-.963a.739.739,0,0,0-.688,0l-1.831.963.35-2.039a.74.74,0,0,0-.213-.654l-1.481-1.444Z" transform="translate(-30.076 -26.488)"/></g></g></svg>