<svg xmlns="http://www.w3.org/2000/svg" width="13.5" height="13.5" viewBox="0 0 13.5 13.5"><defs><style>.a{fill:#1d7cf7;}</style></defs><g transform="translate(-1473.25 -216)"><path class="a" d="M1.25,11a.75.75,0,0,1,1.5,0v2.25h10.5V11a.75.75,0,0,1,1.5,0v3a.76.76,0,0,1-.75.75H2A.76.76,0,0,1,1.25,14ZM8,1.25A.76.76,0,0,0,7.25,2V8.19L5.7,6.64A.75.75,0,0,0,4.64,7.7l2.83,2.83a.78.78,0,0,0,.24.16.73.73,0,0,0,.58,0,.78.78,0,0,0,.24-.16L11.36,7.7A.75.75,0,0,0,10.3,6.64L8.75,8.19V2A.76.76,0,0,0,8,1.25Z" transform="translate(1472 214.75)"/></g></svg>