<svg xmlns="http://www.w3.org/2000/svg" width="36.797" height="25.551" viewBox="0 0 36.797 25.551"><defs><style>.a{fill:#2658c8;stroke:#2658c8;stroke-width:0.3px;}</style></defs><path class="a" d="M27.161,100.421l-.535.518a.6.6,0,0,1-.831-.007l-1.6-1.6a.453.453,0,0,0-.708.087,3.258,3.258,0,0,0-.117,3.044,3.357,3.357,0,0,0,1.528,1.67,3.281,3.281,0,0,0,2.448.217.42.42,0,0,1,.415.1l1.474,1.474a.453.453,0,0,0,.64-.64L28.4,103.811a1.325,1.325,0,0,0-1.308-.33,2.391,2.391,0,0,1-1.782-.153A2.451,2.451,0,0,1,24.2,102.1a2.571,2.571,0,0,1-.175-1.662l1.128,1.129a1.5,1.5,0,0,0,2.1.017l.54-.523.01-.01.523-.54a1.5,1.5,0,0,0-.017-2.1l-1.129-1.129a2.573,2.573,0,0,1,1.662.176,2.451,2.451,0,0,1,1.223,1.11,2.39,2.39,0,0,1,.153,1.782,1.325,1.325,0,0,0,.33,1.308l5.162,5.162H25.749a.453.453,0,0,0-.453.453v1.273a1.584,1.584,0,0,0,1.392,1.57v7.409a2.579,2.579,0,0,0,2.576,2.576H53.474a2.579,2.579,0,0,0,2.576-2.576v-7.409a1.584,1.584,0,0,0,1.392-1.57v-1.273a.453.453,0,0,0-.453-.453h-11.1l4.54-5.348h0a.475.475,0,0,0,.105-.316v-.011a.456.456,0,0,0-.014-.081.009.009,0,0,0,0,0,.45.45,0,0,0-.082-.16h0a1.224,1.224,0,0,1-.264-.77,2.172,2.172,0,0,0-2.207-2.426,3.945,3.945,0,0,1,.537-.393,4.312,4.312,0,0,1,3.911-.172,3.363,3.363,0,0,1,.889.51l1.966,1.543a.341.341,0,0,1,.129.229l.086.709a1.249,1.249,0,0,0,1.543,1.061l.445-.111a.341.341,0,0,1,.294.062l.706.549a.408.408,0,0,1,.07.575l-1.77,2.241a.406.406,0,0,1-.566.074l-.572-.429a.341.341,0,0,1-.134-.226l-.061-.426a1.249,1.249,0,0,0-1.569-1.027l-.435.12a1.4,1.4,0,0,1-1.24-.253l-.549-.437a.452.452,0,1,0-.564.708l.521.415-1.841,2.254a.453.453,0,1,0,.7.573l1.958-2.4a2.3,2.3,0,0,0,1.256.01l.435-.12a.344.344,0,0,1,.432.283l.061.426a1.241,1.241,0,0,0,.487.822l.572.429a1.306,1.306,0,0,0,1.819-.237l1.769-2.241a1.313,1.313,0,0,0-.224-1.851l-.706-.549a1.241,1.241,0,0,0-1.069-.226l-.445.111a.344.344,0,0,1-.425-.292l-.086-.709a1.241,1.241,0,0,0-.468-.832l-1.966-1.544a4.264,4.264,0,0,0-1.13-.645A4.952,4.952,0,0,0,46.51,98.01a.452.452,0,0,0,.472.674,2.253,2.253,0,0,1,1.853.225,1.553,1.553,0,0,1,.433,1.213,2.135,2.135,0,0,0,.252,1.023l-4.82,5.678H42.872L39.265,99.2l.661-.317a.452.452,0,0,0,.14-.712L37.2,95.014a.453.453,0,0,0-.531-.1l-1.694.813a.452.452,0,0,0-.251.479l.67,4.207a.452.452,0,0,0,.643.337l.657-.315,2.541,5.371a.453.453,0,1,0,.818-.387l-2.735-5.782a.452.452,0,0,0-.6-.214l-.52.249-.521-3.275,1.086-.521,2.227,2.457-.52.249a.452.452,0,0,0-.213.6l3.616,7.644H36.993l-5.8-5.8a.42.42,0,0,1-.1-.415,3.281,3.281,0,0,0-.217-2.448A3.357,3.357,0,0,0,29.2,96.63a3.258,3.258,0,0,0-3.044.117.453.453,0,0,0-.087.708l1.6,1.6a.6.6,0,0,1,.007.831Zm15.424,7.308h5.083v1.5h-12.6v-1.5Zm-8.418,0v2.382a.558.558,0,0,1-.558.558h-.995a.558.558,0,0,1-.558-.558v-2.382Zm22.371.821a.678.678,0,0,1-.677.677H53.172a.453.453,0,1,0,0,.905h1.973v7.4a1.673,1.673,0,0,1-1.671,1.671H29.265a1.673,1.673,0,0,1-1.671-1.671v-7.4h1.974a.453.453,0,1,0,0-.905H26.879a.678.678,0,0,1-.677-.677v-.821H31.15v2.382a1.465,1.465,0,0,0,1.463,1.463h.995a1.464,1.464,0,0,0,1.462-1.442h12.6a1.464,1.464,0,0,0,1.462,1.442h1a1.465,1.465,0,0,0,1.463-1.463v-2.382h4.949Zm-5.854-.821v2.382a.558.558,0,0,1-.558.558h-1a.558.558,0,0,1-.558-.558v-2.382Z" transform="translate(-22.889 -94.703)"/></svg>