<svg xmlns="http://www.w3.org/2000/svg" width="18.328" height="23.156" viewBox="0 0 18.328 23.156"><defs><style>.a{fill:#2658c8;}</style></defs><path class="a" d="M296.1,202.693a5.395,5.395,0,1,1,3.816-1.58A5.362,5.362,0,0,1,296.1,202.693Zm0-9.574a4.177,4.177,0,1,0,4.177,4.177A4.182,4.182,0,0,0,296.1,193.119Z" transform="translate(-286.933 -188.13)"/><path class="a" d="M401.385,336.867l-1.985-1.985.863-.861,1.122,1.122,2.643-2.643.863.861Z" transform="translate(-392.982 -325.302)"/><path class="a" d="M145.364,55.633a2.416,2.416,0,0,1-1.131-.283c-.073-.039-.144-.083-.212-.127a2.254,2.254,0,0,1-.354-.293L142.735,54a1.171,1.171,0,0,0-.836-.346h-1.317a2.4,2.4,0,0,1-2.4-2.4V49.931a1.2,1.2,0,0,0-.346-.836l-.932-.932a2.4,2.4,0,0,1,0-3.4l.932-.932A1.191,1.191,0,0,0,138.18,43V41.682a2.4,2.4,0,0,1,2.4-2.4H141.9a1.175,1.175,0,0,0,.836-.346l.932-.931a2.4,2.4,0,0,1,3.394,0l.931.931a1.171,1.171,0,0,0,.836.346h1.317a2.4,2.4,0,0,1,2.4,2.4V43a1.175,1.175,0,0,0,.346.836l.932.932a2.4,2.4,0,0,1,0,3.4l-.932.932a1.167,1.167,0,0,0-.346.836v1.317a2.4,2.4,0,0,1-2.4,2.4h-1.317a1.171,1.171,0,0,0-.836.346l-.931.932a2.391,2.391,0,0,1-.356.293c-.066.044-.139.088-.212.127A2.374,2.374,0,0,1,145.364,55.633ZM140.58,40.5a1.184,1.184,0,0,0-1.183,1.183V43a2.383,2.383,0,0,1-.7,1.7l-.931.932a1.182,1.182,0,0,0,0,1.67l.931.932a2.383,2.383,0,0,1,.7,1.7v1.317a1.184,1.184,0,0,0,1.183,1.183H141.9a2.383,2.383,0,0,1,1.7.7l.932.931a1.27,1.27,0,0,0,.176.146.874.874,0,0,0,.1.061,1.173,1.173,0,0,0,1.114,0,1.028,1.028,0,0,0,.1-.061,1.292,1.292,0,0,0,.178-.146l.932-.931a2.383,2.383,0,0,1,1.7-.7h1.317a1.184,1.184,0,0,0,1.183-1.183V49.929a2.383,2.383,0,0,1,.7-1.7l.931-.932a1.185,1.185,0,0,0,0-1.673l-.931-.932a2.383,2.383,0,0,1-.7-1.7V41.682a1.184,1.184,0,0,0-1.183-1.183h-1.317a2.375,2.375,0,0,1-1.7-.7l-.932-.932a1.183,1.183,0,0,0-1.673,0l-.932.932a2.383,2.383,0,0,1-1.7.7H140.58Z" transform="translate(-136.2 -37.3)"/><path class="a" d="M215.775,665.825l-1.861-2.287-2.914.441,2.39-6.179h1.485a2.383,2.383,0,0,1,1.7.7l.932.932a1.271,1.271,0,0,0,.176.146l.4.271Zm-1.353-3.6.973,1.2,1.219-3.155-.9-.9a1.171,1.171,0,0,0-.836-.346h-.649l-1.329,3.438Z" transform="translate(-209.176 -642.669)"/><path class="a" d="M524.809,665.92l-2.309-5.969.4-.271a1,1,0,0,0,.176-.146l.932-.931a2.383,2.383,0,0,1,1.7-.7h1.487l2.387,6.179-2.914-.441Zm-.839-5.552,1.219,3.155.973-1.2,1.524.232-1.329-3.438h-.649a1.171,1.171,0,0,0-.836.346Z" transform="translate(-513.08 -642.767)"/></svg>