<svg xmlns="http://www.w3.org/2000/svg" width="52" height="58.322" viewBox="0 0 52 58.322"><defs><style>.a{fill:#5ca3ff;}</style></defs><g transform="translate(-1104 -811)"><g transform="translate(1104 811)"><g transform="translate(0 0)"><path class="a" d="M54.094,3.775a.94.94,0,0,0-1.33,0L23.776,32.763l-.159-.159a.969.969,0,0,0-1.33,0L8.815,46.076a.94.94,0,0,0,0,1.33l14.14,14.14a.942.942,0,0,0,1.331,0l9.436-9.436A.941.941,0,0,0,34,51.444V47.678l2.626-.9a.941.941,0,0,0,.636-.872l.053-2.776,2.627-.9a.94.94,0,0,0,.636-.872l.053-2.776,2.627-.9a.94.94,0,0,0,.636-.872l.053-2.776,2.626-.9a.94.94,0,0,0,.636-.872l.053-2.776,2.627-.9a.94.94,0,0,0,.636-.872l.053-2.777,2.627-.9a.94.94,0,0,0,.636-.872l.053-2.778,2.627-.9a.941.941,0,0,0,.636-.872l.054-2.779,2.63-.9a.942.942,0,0,0,.635-.872l.068-3.439a.94.94,0,0,0-.275-.684ZM32.116,51.056l-8.5,8.5-12.81-12.81L22.952,34.6l9.163,9.163v7.293ZM58.6,13.374l-2.631.9a.942.942,0,0,0-.635.872l-.054,2.778-2.627.9a.94.94,0,0,0-.636.872l-.053,2.778-2.628.9a.94.94,0,0,0-.636.872l-.053,2.777-2.627.9a.94.94,0,0,0-.636.872l-.053,2.776-2.626.9a.94.94,0,0,0-.636.872l-.053,2.776-2.627.9a.94.94,0,0,0-.636.872l-.053,2.776-2.627.9a.94.94,0,0,0-.636.872l-.053,2.776-1.381.472V43.361a.944.944,0,0,0-.275-.666l-8.615-8.617L53.428,5.771l5.223,5.223Z" transform="translate(-8.539 -3.499)"/><path class="a" d="M23.371,62.524l-5.11,5.11a.942.942,0,0,0,0,1.331l7.52,7.52a.942.942,0,0,0,1.331,0l2.707-2.707a.941.941,0,0,0,.275-.665V68.305a.942.942,0,0,0-.275-.665L24.7,62.523A.942.942,0,0,0,23.371,62.524Zm4.841,10.2-1.767,1.767-6.19-6.19,3.78-3.78L28.211,68.7v4.027Z" transform="translate(-12.062 -25.406)"/></g></g></g></svg>