<svg xmlns="http://www.w3.org/2000/svg" width="33.909" height="55.845" viewBox="0 0 33.909 55.845"><defs><style>.a{fill:#5ca3ff;stroke:#5ca3ff;stroke-width:0.7px;}</style></defs><g transform="translate(-1263.563 -852.505)"><path class="a" d="M634.353,264.385c-.017-.057-.028-.115-.048-.173a7.988,7.988,0,0,0-1.676-2.206l-.972-.971a.283.283,0,0,1-.081-.2v-1.531h-1.531a.28.28,0,0,1-.2-.081l-6.7-6.7-1.848,1.853a.277.277,0,0,1-.395,0l-4.078-4.078a.279.279,0,0,1,0-.394l8.7-8.7-5.065-5.063L619.1,237.5a.288.288,0,0,1-.395,0l-1.687-1.688L601.4,251.428l4.708,4.7,15.612-15.613-1.688-1.682a.277.277,0,0,1,0-.393l.225-.225a.279.279,0,0,1,.395,0l2.793,2.793a.279.279,0,0,1,0,.394l-8.7,8.7,5.215,5.214a.279.279,0,0,1,0,.394l-1.852,1.85,1.277,1.277a.279.279,0,0,1-.2.475H604.04v2.644a.279.279,0,0,1-.279.278h-2.417v5.047h1.329a.279.279,0,0,1,.273.228,15.009,15.009,0,0,0,1.069,3.422.3.3,0,0,1,.024.115v19.773h27.537V271.041a.289.289,0,0,1,.024-.114,15.107,15.107,0,0,0,.777-2.159.28.28,0,0,1,.151-.178,3.393,3.393,0,0,0,1.39-1.19A3.983,3.983,0,0,0,634.353,264.385ZM619.648,240.72l-13.34,13.337a.278.278,0,0,1-.395,0l-2.436-2.436a.279.279,0,0,1,0-.394l13.34-13.337a.28.28,0,0,1,.395,0l2.436,2.436a.279.279,0,0,1,0,.394ZM604.04,264.755a.279.279,0,0,1-.279.279h-.811a.28.28,0,0,1-.278-.279v-.917a.278.278,0,0,1,.278-.278h.811a.279.279,0,0,1,.279.278Zm26.21,24.457a.278.278,0,0,1-.278.278H605.645a.279.279,0,0,1-.278-.278V274.18a.279.279,0,0,1,.189-.264.282.282,0,0,1,.31.094,15.091,15.091,0,0,0,23.885,0,.279.279,0,0,1,.5.17Zm0-18.614a.292.292,0,0,1-.027.12,13.759,13.759,0,0,1-24.828,0,.292.292,0,0,1-.027-.12v-9.683a.279.279,0,0,1,.278-.279h15.432a.278.278,0,0,1,.2.082l7.122,7.124a3.7,3.7,0,0,0,1.649.956.278.278,0,0,1,.206.269Zm2.31-3.626a1.993,1.993,0,0,1-.593.4,2.241,2.241,0,0,1-.891.2h-.063a2.425,2.425,0,0,1-1.177-.306,2.237,2.237,0,0,1-.5-.364l-9.152-9.151a.278.278,0,0,1,0-.395l2.765-2.761a.277.277,0,0,1,.393,0l9.148,9.148a2.414,2.414,0,0,1,.424.593,2.234,2.234,0,0,1,.141.324,2.3,2.3,0,0,1,.134.717A2.171,2.171,0,0,1,632.561,266.972Z" transform="translate(662.656 617.184)"/></g></svg>