<svg xmlns="http://www.w3.org/2000/svg" width="29.612" height="29.612" viewBox="0 0 29.612 29.612"><defs><style>.a{fill:none;stroke:#8491a9;stroke-miterlimit:10;stroke-width:1.5px;}.b{fill:#8491a9;}</style></defs><g transform="translate(-1026.25 -2335.25)"><g transform="translate(0 38)"><path class="a" d="M14.056,0h0A14.056,14.056,0,0,1,28.112,14.056v0A14.056,14.056,0,0,1,14.056,28.112h0A14.056,14.056,0,0,1,0,14.056v0A14.056,14.056,0,0,1,14.056,0Z" transform="translate(1027 2298)"/><path class="b" d="M673.738,153.025h3.421v-8.568h2.387l.255-2.869h-2.642v-1.634c0-.677.136-.944.79-.944H679.8v-2.977h-2.369c-2.546,0-3.694,1.121-3.694,3.268v2.287h-1.78v2.9h1.78Z" transform="translate(365.177 2167.527)"/></g></g></svg>