<svg xmlns="http://www.w3.org/2000/svg" width="29.612" height="29.612" viewBox="0 0 29.612 29.612"><defs><style>.a{fill:none;stroke:#8491a9;stroke-miterlimit:10;stroke-width:1.5px;}.b{fill:#8491a9;fill-rule:evenodd;}</style></defs><g transform="translate(-1271.25 -2297.25)"><path class="a" d="M928.5,155.465h0a14.056,14.056,0,0,1-14.056-14.055h0A14.056,14.056,0,0,1,928.5,127.353h0a14.055,14.055,0,0,1,14.056,14.055h0A14.055,14.055,0,0,1,928.5,155.465Z" transform="translate(357.555 2170.647)"/><path class="b" d="M938.453,143.265a7.571,7.571,0,0,0-15.129-.138c0,.109-.007.219-.007.329a7.456,7.456,0,0,0,1.084,3.881l-1.364,4.029,4.192-1.332a7.579,7.579,0,0,0,11.227-6.577C938.457,143.392,938.457,143.328,938.453,143.265Zm-7.566,6.506a6.335,6.335,0,0,1-3.5-1.046l-2.445.78.794-2.346a6.251,6.251,0,0,1-1.212-3.7,6.016,6.016,0,0,1,.032-.613,6.367,6.367,0,0,1,12.677.12c.014.163.021.326.021.493A6.348,6.348,0,0,1,930.887,149.771Z" transform="translate(355.309 2168.401)"/><path class="b" d="M935.828,146.417c-.188-.092-1.1-.538-1.269-.6s-.294-.092-.418.092-.482.6-.589.719-.216.138-.4.047a5.03,5.03,0,0,1-1.492-.914,5.521,5.521,0,0,1-1.031-1.273c-.106-.184-.01-.284.082-.375s.184-.216.279-.323l.068-.089a2.2,2.2,0,0,0,.117-.22.333.333,0,0,0-.014-.322c-.046-.092-.418-1-.575-1.368s-.308-.305-.418-.305-.23-.018-.354-.018a.688.688,0,0,0-.5.23,2.064,2.064,0,0,0-.648,1.538,2.368,2.368,0,0,0,.1.628,4.186,4.186,0,0,0,.663,1.276,7.618,7.618,0,0,0,3.168,2.782c1.889.733,1.889.489,2.229.456a1.848,1.848,0,0,0,1.25-.875,1.515,1.515,0,0,0,.11-.875C936.136,146.555,936.012,146.509,935.828,146.417Z" transform="translate(353.838 2166.957)"/></g></svg>