<svg xmlns="http://www.w3.org/2000/svg" width="21.624" height="24.183" viewBox="0 0 21.624 24.183"><defs><style>.a{fill:#8291a0;stroke:#8291a0;stroke-width:0.5px;}</style></defs><g transform="translate(-393.75 -865.398)"><path class="a" d="M571.461,184.729a.323.323,0,0,0,.322-.322v-2.238h.531a.75.75,0,0,0,.749-.748v-.854a.75.75,0,0,0-.749-.749h-.531v-4.371a5.456,5.456,0,0,0-5.442-5.442h-2.664v-.531a.751.751,0,0,0-.749-.749h-.853a.751.751,0,0,0-.749.749v.531h-.531a.961.961,0,0,1-.958-.958v-3.091h.531a.751.751,0,0,0,.749-.749v-.853a.75.75,0,0,0-.749-.749h-.531v-2.238a.322.322,0,0,0-.322-.322h-5.974a.322.322,0,0,0-.322.322v2.238h-.531a.751.751,0,0,0-.749.749v.853a.751.751,0,0,0,.749.749h.531v5.224a5.457,5.457,0,0,0,5.442,5.442h2.664v.531a.751.751,0,0,0,.749.749h.853a.751.751,0,0,0,.749-.749v-.531h.531a.96.96,0,0,1,.958.958v2.238h-.531a.751.751,0,0,0-.749.749v.853a.751.751,0,0,0,.749.748h.531v2.238a.322.322,0,0,0,.322.322h5.974ZM559.192,161.69v1.916h-5.329V161.69Zm-6.609,3.622V164.25h7.888v1.063Zm8.742,10.666h-2.664a4.811,4.811,0,0,1-4.8-4.8v-5.224h5.329v3.091a1.606,1.606,0,0,0,1.6,1.6h.531Zm1.705,1.28H561.97V169.37h1.062Zm1.177-1.28h-.531V170.65h2.664a4.81,4.81,0,0,1,4.8,4.8v4.371H565.81v-2.238A1.606,1.606,0,0,0,564.208,175.979Zm.322,5.547v-1.063h7.889v1.063Zm6.609,2.56H565.81v-1.916h5.329Z" transform="translate(-157.939 704.602)"/></g></svg>