<svg xmlns="http://www.w3.org/2000/svg" width="55.695" height="55.701" viewBox="0 0 55.695 55.701"><defs><style>.a{fill:#5ca3ff;stroke:#5ca3ff;stroke-width:0.7px;}</style></defs><g transform="translate(-595.649 -852.65)"><g transform="translate(596 875.193)"><path class="a" d="M16.516,61.439c-.148,0-.3,0-.444-.007a14.454,14.454,0,0,1-9.771-4.3c-5.5-5.5-5.753-14.179-.575-19.356l8.9-8.9a.833.833,0,0,1,.589-.244h0a.833.833,0,0,1,.589.244l6.8,6.8a.833.833,0,0,1-1.178,1.178l-6.21-6.211L6.9,38.958c-4.528,4.528-4.27,12.154.575,17a12.793,12.793,0,0,0,8.646,3.809,11.149,11.149,0,0,0,8.354-3.233l8.315-8.315-6.21-6.21a.833.833,0,1,1,1.178-1.178l6.8,6.8a.833.833,0,0,1,0,1.178l-8.9,8.9A12.783,12.783,0,0,1,16.516,61.439Z" transform="translate(-2.004 -28.631)"/></g><g transform="translate(606.907 878.682)"><path class="a" d="M19.569,51.222A4.476,4.476,0,0,1,16.4,43.58L26.929,33.053a.858.858,0,0,1,1.178,0l5.154,5.154a.833.833,0,0,1,0,1.178L22.735,49.913A4.462,4.462,0,0,1,19.569,51.222Zm7.95-16.4-9.937,9.938a2.811,2.811,0,0,0,3.976,3.976L31.494,38.8Z" transform="translate(-15.093 -32.819)"/></g><g transform="translate(619.637 865.245)"><path class="a" d="M34.081,35.806a.831.831,0,0,1-.589-.244l-2.879-2.879a.833.833,0,0,1,0-1.178L45.177,16.939a.833.833,0,1,1,1.178,1.178L32.38,32.093l1.7,1.7L48.057,19.818A.833.833,0,0,1,49.235,21L34.67,35.561A.831.831,0,0,1,34.081,35.806Z" transform="translate(-30.368 -16.695)"/></g><g transform="translate(633.375 853)"><g transform="translate(0 2.508)"><path class="a" d="M54.546,20.12c-.129,0-.258,0-.389-.011a7.878,7.878,0,0,1-7.293-7.293,6.335,6.335,0,0,1,1.814-4.9L51.34,5.253a.833.833,0,0,1,1.178,1.178L49.857,9.094a4.691,4.691,0,0,0-1.328,3.632,6.212,6.212,0,0,0,5.719,5.719,4.664,4.664,0,0,0,3.632-1.328l2.662-2.662a.833.833,0,0,1,1.178,1.178L59.059,18.3A6.293,6.293,0,0,1,54.546,20.12Z" transform="translate(-46.854 -5.009)"/></g><g transform="translate(4.242)"><path class="a" d="M61.979,15.377a.831.831,0,0,1-.589-.244l-9.2-9.2a.833.833,0,0,1,0-1.178L54.7,2.244a.833.833,0,0,1,1.178,0l9.2,9.2a.833.833,0,0,1,0,1.178l-2.508,2.508A.831.831,0,0,1,61.979,15.377ZM53.956,5.341l8.023,8.024,1.33-1.329L55.285,4.012Z" transform="translate(-51.944 -2)"/></g></g></g></svg>