<svg xmlns="http://www.w3.org/2000/svg" width="49.756" height="55.7" viewBox="0 0 49.756 55.7"><defs><style>.a{fill:#5ca3ff;stroke:#5ca3ff;stroke-width:0.7px;}</style></defs><g transform="translate(-393.65 -865.298)"><path class="a" d="M597.275,216.046a.749.749,0,0,0,.748-.747v-5.2h1.234A1.743,1.743,0,0,0,601,208.363V206.38a1.743,1.743,0,0,0-1.739-1.739h-1.233V194.491a12.671,12.671,0,0,0-12.638-12.638H579.2v-1.234a1.744,1.744,0,0,0-1.74-1.739h-1.981a1.744,1.744,0,0,0-1.739,1.739v1.234H572.5a2.231,2.231,0,0,1-2.224-2.224V172.45h1.234a1.744,1.744,0,0,0,1.739-1.739V168.73a1.743,1.743,0,0,0-1.739-1.739H570.28v-5.2a.748.748,0,0,0-.747-.748H555.659a.747.747,0,0,0-.748.747v5.2h-1.233a1.744,1.744,0,0,0-1.739,1.739v1.981a1.745,1.745,0,0,0,1.739,1.739h1.234v12.132A12.673,12.673,0,0,0,567.55,197.22h6.187v1.233a1.745,1.745,0,0,0,1.74,1.739h1.981a1.745,1.745,0,0,0,1.74-1.739V197.22h1.234a2.23,2.23,0,0,1,2.224,2.224v5.2h-1.234a1.744,1.744,0,0,0-1.739,1.739v1.982a1.744,1.744,0,0,0,1.739,1.738h1.234v5.2a.748.748,0,0,0,.747.748h13.873Zm-28.491-53.5v4.449H556.408v-4.449Zm-15.347,8.412v-2.468h18.319v2.468Zm20.3,24.77H567.55a11.174,11.174,0,0,1-11.142-11.141V172.45h12.375v7.178a3.73,3.73,0,0,0,3.72,3.72h1.233Zm3.96,2.973h-2.464V180.376H577.7Zm2.733-2.973H579.2V183.349h6.187a11.171,11.171,0,0,1,11.142,11.141v10.152H584.151v-5.2A3.729,3.729,0,0,0,580.431,195.724Zm.748,12.881v-2.468H599.5l0,2.468Zm15.347,5.945H584.151V210.1h12.375Z" transform="translate(-157.939 704.602)"/></g></svg>