<svg xmlns="http://www.w3.org/2000/svg" width="55.677" height="55.7" viewBox="0 0 55.677 55.7"><defs><style>.a{fill:#5ca3ff;stroke:#5ca3ff;stroke-width:0.7px;}</style></defs><g transform="translate(-790.65 -852.65)"><g transform="translate(791 853)"><path class="a" d="M655.233,233.62h.009a4.177,4.177,0,0,0,4.1-3.557l.017-.118.118-.022a24.328,24.328,0,0,0,19.573-19.564l.022-.118.118-.017a4.142,4.142,0,0,0-.008-8.2l-.119-.017-.021-.118a24.328,24.328,0,0,0-19.564-19.57l-.118-.021-.017-.119a4.173,4.173,0,0,0-4.11-3.559h-.01a4.171,4.171,0,0,0-4.1,3.585l-.017.12-.118.021a24.341,24.341,0,0,0-19.523,19.544l-.021.118-.119.017a4.142,4.142,0,0,0-.011,8.2l.118.017.022.118a24.333,24.333,0,0,0,19.537,19.558l.118.021.017.119A4.173,4.173,0,0,0,655.233,233.62Zm2.509-3.98A2.525,2.525,0,0,1,655.233,232h-.011a2.509,2.509,0,0,1-2.492-2.3l0-.047.021-.042a.811.811,0,0,0,.086-.327.819.819,0,0,0-.046-.307l-.016-.046.011-.047a2.512,2.512,0,0,1,2.452-1.939h.01a2.509,2.509,0,0,1,2.451,1.976l.009.043-.013.041a.818.818,0,0,0-.031.306.791.791,0,0,0,.069.247l.016.038Zm23.365-23.514a2.518,2.518,0,0,1-2.515,2.515.5.5,0,0,1-.071-.007l-.039,0a2.511,2.511,0,1,1,2.625-2.5Zm-28.393-23.4a2.536,2.536,0,0,1,2.52-2.464h.01a2.532,2.532,0,0,1,2.514,2.514.434.434,0,0,1-.006.081,2.515,2.515,0,0,1-2.518,2.454h-.011a2.512,2.512,0,0,1-2.475-2.121l0-.025,0-.025a.823.823,0,0,0,0-.234.954.954,0,0,0-.032-.128l-.007-.025ZM631.98,208.634c-.025,0-.048,0-.073.006a2.515,2.515,0,0,1-.009-5.03.554.554,0,0,1,.075.006l.04,0a2.506,2.506,0,0,1,.018,5.008l-.05-.162h0Zm19.313,19.507-.047.138-.142-.027a22.444,22.444,0,0,1-17.981-18.012l-.027-.142.137-.047a4.144,4.144,0,0,0-.007-7.858l-.138-.046.027-.142a22.445,22.445,0,0,1,18-17.989l.141-.027.047.136a4.157,4.157,0,0,0,3.93,2.809h.01a4.156,4.156,0,0,0,3.928-2.832l.046-.138.142.027a22.438,22.438,0,0,1,18.01,18.02l.027.142-.137.047a4.143,4.143,0,0,0,.009,7.851l.137.046-.027.142a22.44,22.44,0,0,1-18.018,18.008l-.142.027-.046-.137a4.152,4.152,0,0,0-3.939-2.834h-.01A4.153,4.153,0,0,0,651.293,228.141Z" transform="translate(-627.762 -178.62)"/><path class="a" d="M654.233,215.984h.006a.452.452,0,0,0,.364-.189l9.075-12.062a.539.539,0,0,0,.105-.322.529.529,0,0,0-.136-.36.448.448,0,0,0-.33-.15h-7.523l.921-6.007a.549.549,0,0,0-.164-.5.452.452,0,0,0-.672.069l-9.074,12.09a.542.542,0,0,0-.107.325.528.528,0,0,0,.137.359.443.443,0,0,0,.33.149h7.524l-.921,6.008a.484.484,0,0,0-.005.072.537.537,0,0,0,.136.366A.454.454,0,0,0,654.233,215.984Zm-6.079-7.62,7.343-9.773-.725,4.685a.578.578,0,0,0-.007.1.53.53,0,0,0,.142.358.453.453,0,0,0,.333.144h7.094l-7.349,9.775.726-4.687a.613.613,0,0,0,.007-.1.527.527,0,0,0-.142-.358.457.457,0,0,0-.333-.144Z" transform="translate(-627.762 -178.62)"/></g></g></svg>