<svg xmlns="http://www.w3.org/2000/svg" width="29.612" height="29.612" viewBox="0 0 29.612 29.612"><defs><style>.a{fill:none;stroke:#8491a9;stroke-miterlimit:10;stroke-width:1.5px;}.b{fill:#8491a9;}</style></defs><g transform="translate(-1124.25 -2335.25)"><g transform="translate(0 38)"><path class="a" d="M778.056,156.617h0A14.056,14.056,0,0,1,764,142.561h0a14.056,14.056,0,0,1,14.056-14.056h0a14.056,14.056,0,0,1,14.055,14.056h0A14.055,14.055,0,0,1,778.056,156.617Z" transform="translate(361 2169.495)"/><path class="b" d="M772.891,150.088a8.74,8.74,0,0,0,13.445-7.76,6.232,6.232,0,0,0,1.533-1.591,6.128,6.128,0,0,1-1.765.484,3.081,3.081,0,0,0,1.351-1.7,6.162,6.162,0,0,1-1.951.746,3.075,3.075,0,0,0-5.237,2.8,8.722,8.722,0,0,1-6.333-3.211,3.077,3.077,0,0,0,.951,4.1,3.06,3.06,0,0,1-1.392-.385,3.077,3.077,0,0,0,2.465,3.053,3.076,3.076,0,0,1-1.387.052,3.074,3.074,0,0,0,2.87,2.135A6.181,6.181,0,0,1,772.891,150.088Z" transform="translate(358.676 2166.674)"/></g></g></svg>