<svg xmlns="http://www.w3.org/2000/svg" width="29.612" height="29.612" viewBox="0 0 29.612 29.612"><defs><style>.a{fill:none;stroke:#8491a9;stroke-miterlimit:10;stroke-width:1.5px;}.b{fill:#8491a9;}</style></defs><g transform="translate(-1075.25 -2335.25)"><g transform="translate(0 38)"><rect class="a" width="28.112" height="28.112" rx="14.056" transform="translate(1076 2298)"/><g transform="translate(1083.402 2304.224)"><rect class="b" width="2.909" height="9.398" transform="translate(0.28 4.699)"/><path class="b" d="M723.712,143.878a1.734,1.734,0,1,0-1.72-1.735A1.727,1.727,0,0,0,723.712,143.878Z" transform="translate(-721.992 -140.41)"/></g><path class="b" d="M731.617,151.134c0-1.321.608-2.108,1.773-2.108,1.07,0,1.584.756,1.584,2.108v4.934h2.9v-5.951c0-2.517-1.427-3.734-3.419-3.734a3.278,3.278,0,0,0-2.833,1.553V146.67h-2.79v9.4h2.79Z" transform="translate(359.624 2162.252)"/></g></g></svg>