<svg xmlns="http://www.w3.org/2000/svg" width="29.612" height="29.612" viewBox="0 0 29.612 29.612"><defs><style>.a{fill:none;stroke:#8491a9;stroke-miterlimit:10;stroke-width:1.5px;}.b{fill:#8491a9;}</style></defs><g transform="translate(-1222.25 -2335.25)"><g transform="translate(0 38)"><path class="a" d="M869.807,168.12h0a14.056,14.056,0,0,1-14.056-14.055h0a14.056,14.056,0,0,1,14.056-14.056h0a14.056,14.056,0,0,1,14.056,14.056h0A14.056,14.056,0,0,1,869.807,168.12Z" transform="translate(367.249 2157.992)"/><path class="b" d="M880.309,152.326a2.3,2.3,0,0,0-1.617-1.628,66.57,66.57,0,0,0-14.295,0,2.3,2.3,0,0,0-1.618,1.628,25.859,25.859,0,0,0,0,8.864,2.3,2.3,0,0,0,1.618,1.628,66.567,66.567,0,0,0,14.295,0,2.3,2.3,0,0,0,1.617-1.628,25.863,25.863,0,0,0,0-8.864Zm-10.636,7.153v-5.44l4.782,2.72Z" transform="translate(365.512 2155.298)"/></g></g></svg>