<svg xmlns="http://www.w3.org/2000/svg" width="29.612" height="29.612" viewBox="0 0 29.612 29.612"><defs><style>.a{fill:none;stroke:#8491a9;stroke-miterlimit:10;stroke-width:1.5px;}.b{fill:#8491a9;}</style></defs><g transform="translate(-1173.25 -2335.25)"><g transform="translate(0 38)"><path class="a" d="M819.652,155.465h0A14.056,14.056,0,0,1,805.6,141.408h0a14.055,14.055,0,0,1,14.056-14.055h0a14.056,14.056,0,0,1,14.056,14.055h0A14.056,14.056,0,0,1,819.652,155.465Z" transform="translate(368.403 2170.647)"/><path class="b" d="M821.9,137.338c2.058,0,2.3.008,3.115.045a4.256,4.256,0,0,1,1.431.265,2.552,2.552,0,0,1,1.462,1.462,4.275,4.275,0,0,1,.266,1.431c.037.812.045,1.056.045,3.114s-.008,2.3-.045,3.115a4.265,4.265,0,0,1-.266,1.431,2.551,2.551,0,0,1-1.462,1.463,4.256,4.256,0,0,1-1.431.265c-.813.037-1.056.045-3.115.045s-2.3-.008-3.114-.045a4.261,4.261,0,0,1-1.431-.265,2.551,2.551,0,0,1-1.462-1.463,4.251,4.251,0,0,1-.265-1.431c-.038-.812-.045-1.056-.045-3.115s.007-2.3.045-3.114a4.261,4.261,0,0,1,.265-1.431,2.553,2.553,0,0,1,1.462-1.462,4.262,4.262,0,0,1,1.431-.265c.813-.037,1.056-.045,3.114-.045m0-1.389c-2.093,0-2.355.009-3.177.047a5.643,5.643,0,0,0-1.871.358,3.935,3.935,0,0,0-2.253,2.254,5.637,5.637,0,0,0-.358,1.87c-.038.822-.047,1.085-.047,3.177s.009,2.356.047,3.178a5.637,5.637,0,0,0,.358,1.87,3.935,3.935,0,0,0,2.253,2.254,5.663,5.663,0,0,0,1.871.358c.822.038,1.084.047,3.177.047s2.355-.009,3.177-.047a5.663,5.663,0,0,0,1.871-.358A3.94,3.94,0,0,0,829.2,148.7a5.659,5.659,0,0,0,.358-1.87c.038-.822.046-1.085.046-3.178s-.008-2.355-.046-3.177a5.659,5.659,0,0,0-.358-1.87,3.94,3.94,0,0,0-2.254-2.254,5.644,5.644,0,0,0-1.871-.358c-.822-.038-1.084-.047-3.177-.047" transform="translate(366.156 2168.4)"/><path class="b" d="M823.226,141.025a3.958,3.958,0,1,0,3.957,3.957,3.958,3.958,0,0,0-3.957-3.957m0,6.527a2.569,2.569,0,1,1,2.569-2.57,2.569,2.569,0,0,1-2.569,2.57" transform="translate(364.829 2167.073)"/><path class="b" d="M830.794,140.486a.925.925,0,1,1-.925-.925.925.925,0,0,1,.925.925" transform="translate(362.3 2167.456)"/></g></g></svg>