<svg xmlns="http://www.w3.org/2000/svg" width="58.191" height="55.7" viewBox="0 0 58.191 55.7"><defs><style>.a{fill:#5ca3ff;stroke:#5ca3ff;stroke-width:0.7px;}</style></defs><g transform="translate(-1085.647 -852.65)"><path class="a" d="M566.564,208.974a.847.847,0,0,0-.81-.608h-5.827v-6.608a.631.631,0,0,0-.63-.631H551.27a.63.63,0,0,0-.63.631v6.608H520.376a.853.853,0,0,0-.812.61l-5.208,17.987a.845.845,0,0,0,.577,1.046.849.849,0,0,0,.232.033h3.552v26.4h-2.57v1.687h53.838v-1.687h-2.572v-26.4h3.553a.849.849,0,0,0,.844-.85.87.87,0,0,0-.033-.232Zm-14.66-6.582h6.758v5.975H551.9Zm-3.848,52.05h-9.978V242.829A4.994,4.994,0,0,1,543,237.782h.065a5,5,0,0,1,4.988,4.924Zm1.688,0V242.829a6.685,6.685,0,0,0-6.676-6.677h0a6.675,6.675,0,0,0-6.677,6.674v11.615H520.407v-26.4h45.319l0,26.4Zm-33.455-28.085,4.721-16.307h44.111l4.721,16.307Z" transform="translate(571.678 651.872)"/><path class="a" d="M577.462,254.734h0a.64.64,0,0,0,.643-.642v-4.35a.645.645,0,0,0-.644-.645H571.7a.643.643,0,0,0-.643.641v4.356a.645.645,0,0,0,.644.64Zm-5.12-4.349h4.475v3.063h-4.475Z" transform="translate(555.576 638.478)"/><path class="a" d="M528.662,249.1h0a.643.643,0,0,0-.642.64v4.357a.642.642,0,0,0,.642.64h5.766a.64.64,0,0,0,.643-.642v-4.35a.645.645,0,0,0-.644-.645Zm5.118,4.351H529.3v-3.063h4.475Z" transform="translate(567.791 638.478)"/></g></svg>