<svg xmlns="http://www.w3.org/2000/svg" width="110" height="33.072" viewBox="0 0 110 33.072">
  <g id="Grupo_12" data-name="Grupo 12" transform="translate(-135 75)">
    <g id="Grupo_1" data-name="Grupo 1" transform="translate(161.568 -62.916)">
      <path id="Trazado_1" data-name="Trazado 1" d="M-125.448,103.259a11.833,11.833,0,0,1,2.181-7.275,6.963,6.963,0,0,1,5.886-2.925,7.806,7.806,0,0,1,6.391,2.694q2.223,2.693,2.222,7.506,0,4.934-2.228,7.732a7.691,7.691,0,0,1-6.385,2.8,6.91,6.91,0,0,1-5.927-2.953A12.591,12.591,0,0,1-125.448,103.259Zm2.871,0a11.184,11.184,0,0,0,1.361,5.756,4.241,4.241,0,0,0,3.835,2.31,4.878,4.878,0,0,0,4.273-2.118,10.344,10.344,0,0,0,1.47-5.948q0-7.739-5.743-7.739a4.31,4.31,0,0,0-3.87,2.079A10.438,10.438,0,0,0-122.577,103.259Z" transform="translate(125.448 -92.799)" fill="#31384c"/>
      <path id="Trazado_2" data-name="Trazado 2" d="M-104.319,95.213a4.535,4.535,0,0,0-1.477-.274,2.471,2.471,0,0,0-1.961.9,3.388,3.388,0,0,0-.772,2.283,4.5,4.5,0,0,0,.069.766h2.98v2.188h-2.98v12.456h-2.6V101.08h-2.134V98.891h2.134a6.513,6.513,0,0,1,1.381-4.4,4.58,4.58,0,0,1,3.65-1.6,8.086,8.086,0,0,1,2.434.411Z" transform="translate(131.856 -92.888)" fill="#31384c"/>
      <path id="Trazado_3" data-name="Trazado 3" d="M-104.251,113.376V100.92h-2.01V98.732h4.608v14.644Zm1.421-20.183a1.556,1.556,0,0,1,1.142.472,1.54,1.54,0,0,1,.472,1.128,1.553,1.553,0,0,1-.472,1.142,1.557,1.557,0,0,1-1.142.472,1.546,1.546,0,0,1-1.128-.472,1.557,1.557,0,0,1-.471-1.142,1.542,1.542,0,0,1,.465-1.135A1.543,1.543,0,0,1-102.83,93.193Z" transform="translate(135.48 -92.729)" fill="#31384c"/>
      <path id="Trazado_4" data-name="Trazado 4" d="M-89.148,98.113l-1.285,1.832a3.856,3.856,0,0,0-1.4-.752,5.92,5.92,0,0,0-1.975-.355,4.162,4.162,0,0,0-3.364,1.483,6.133,6.133,0,0,0-1.244,4.068,5.494,5.494,0,0,0,1.272,3.917,4.616,4.616,0,0,0,3.527,1.348,5.827,5.827,0,0,0,3.529-1.354l1.025,2.187a9.34,9.34,0,0,1-5.182,1.354,6.61,6.61,0,0,1-4.949-2.009,7.474,7.474,0,0,1-1.955-5.443,7.778,7.778,0,0,1,2.032-5.619,7.329,7.329,0,0,1,5.557-2.12,7.3,7.3,0,0,1,2.461.478A7.018,7.018,0,0,1-89.148,98.113Z" transform="translate(138.151 -90.921)" fill="#31384c"/>
      <path id="Trazado_5" data-name="Trazado 5" d="M-89.9,113.376V100.92h-2.01V98.732h4.608v14.644Zm1.422-20.183a1.561,1.561,0,0,1,1.142.472,1.544,1.544,0,0,1,.471,1.128,1.557,1.557,0,0,1-.471,1.142,1.561,1.561,0,0,1-1.142.472,1.546,1.546,0,0,1-1.128-.472,1.559,1.559,0,0,1-.472-1.142,1.543,1.543,0,0,1,.466-1.135A1.541,1.541,0,0,1-88.481,93.193Z" transform="translate(142.982 -92.729)" fill="#31384c"/>
      <path id="Trazado_6" data-name="Trazado 6" d="M-86.8,104.211a8.008,8.008,0,0,1,1.824-5.475,6.082,6.082,0,0,1,4.806-2.086,6.115,6.115,0,0,1,4.882,2,8.209,8.209,0,0,1,1.736,5.557,8.224,8.224,0,0,1-1.777,5.586,6.083,6.083,0,0,1-4.841,2.044,6.055,6.055,0,0,1-4.881-2.063A8.328,8.328,0,0,1-86.8,104.211Zm2.735,0q0,5.512,3.9,5.511a3.285,3.285,0,0,0,2.851-1.477,6.933,6.933,0,0,0,1.034-4.034q0-5.441-3.885-5.441a3.339,3.339,0,0,0-2.837,1.45A6.651,6.651,0,0,0-84.07,104.211Z" transform="translate(145.653 -90.921)" fill="#31384c"/>
      <path id="Trazado_7" data-name="Trazado 7" d="M-76.938,110.692l.917-2.461a7.073,7.073,0,0,0,3.5,1.422q2.405,0,2.406-2.024,0-1.448-2.324-2.488a18.877,18.877,0,0,1-2.414-1.244,5.314,5.314,0,0,1-1.08-.964,3.818,3.818,0,0,1-.685-1.15,3.742,3.742,0,0,1-.225-1.305,3.357,3.357,0,0,1,1.313-2.816A5.469,5.469,0,0,1-72.1,96.65a11.04,11.04,0,0,1,4.034,1.013l-.739,2.406a4.975,4.975,0,0,0-3.1-1.23,2.7,2.7,0,0,0-1.566.437,1.3,1.3,0,0,0-.637,1.109,2.3,2.3,0,0,0,1.6,2.132l1.859.848a6.528,6.528,0,0,1,2.488,1.777,3.942,3.942,0,0,1,.778,2.5,3.746,3.746,0,0,1-1.38,3.084,5.948,5.948,0,0,1-3.829,1.113A8.719,8.719,0,0,1-76.938,110.692Z" transform="translate(150.812 -90.921)" fill="#31384c"/>
    </g>
    <path id="Trazado_8" data-name="Trazado 8" d="M-142.894,94.284l12.625,6.541,19.6-15.871-19.674,24.575Z" transform="translate(277.894 -159.953)" fill="#0172bc"/>
    <path id="Trazado_9" data-name="Trazado 9" d="M-129.036,97.528v16.116h3.385V93.3Z" transform="translate(285.14 -155.589)" fill="#31384c"/>
    <g id="Grupo_2" data-name="Grupo 2" transform="translate(135 -62.713)">
      <path id="Trazado_10" data-name="Trazado 10" d="M-142.894,93.217v20.471h3.385V97.272Z" transform="translate(142.894 -92.92)" fill="#31384c"/>
      <path id="Trazado_11" data-name="Trazado 11" d="M-140.559,93.248v-.226h-.326Z" transform="translate(143.944 -93.022)" fill="#31384c"/>
    </g>
  </g>
</svg>
